<svg xmlns="http://www.w3.org/2000/svg" viewBox="0 0 11.3 8.96"><title>chimney</title><g id="Layer_2" data-name="Layer 2"><g id="Layer_1-2" data-name="Layer 1"><rect x="0.39" y="2.34" width="0.39" height="0.39" style="fill:#67413e"/><rect x="0.78" y="2.34" width="0.39" height="0.39" style="fill:#67413e"/><rect x="1.17" y="2.34" width="0.39" height="0.39" style="fill:#67413e"/><rect x="1.56" y="2.34" width="0.39" height="0.39" style="fill:#67413e"/><rect x="1.95" y="2.34" width="0.39" height="0.39" style="fill:#67413e"/><rect x="2.34" y="2.34" width="0.39" height="0.39" style="fill:#67413e"/><rect x="2.73" y="2.34" width="0.39" height="0.39" style="fill:#67413e"/><rect x="3.12" y="2.34" width="0.39" height="0.39" style="fill:#67413e"/><rect x="3.51" y="2.34" width="0.39" height="0.39" style="fill:#67413e"/><rect x="3.9" y="2.34" width="0.39" height="0.39" style="fill:#67413e"/><rect x="4.29" y="2.34" width="0.39" height="0.39" style="fill:#67413e"/><rect x="4.67" y="2.34" width="0.39" height="0.39" style="fill:#67413e"/><rect x="5.06" y="2.34" width="0.39" height="0.39" style="fill:#67413e"/><rect x="5.45" y="2.34" width="0.39" height="0.39" style="fill:#7a514f"/><rect x="5.84" y="2.34" width="0.39" height="0.39" style="fill:#7a514f"/><rect x="6.23" y="2.34" width="0.39" height="0.39" style="fill:#67413e"/><rect x="6.62" y="2.34" width="0.39" height="0.39" style="fill:#67413e"/><rect x="0.39" y="2.73" width="0.39" height="0.39" style="fill:#67413e"/><rect x="0.78" y="2.73" width="0.39" height="0.39" style="fill:#67413e"/><rect x="1.17" y="2.73" width="0.39" height="0.39" style="fill:#67413e"/><rect x="1.56" y="2.73" width="0.39" height="0.39" style="fill:#67413e"/><rect x="1.95" y="2.73" width="0.39" height="0.39" style="fill:#67413e"/><rect x="2.34" y="2.73" width="0.39" height="0.39" style="fill:#67413e"/><rect x="2.73" y="2.73" width="0.39" height="0.39" style="fill:#67413e"/><rect x="3.12" y="2.73" width="0.39" height="0.39" style="fill:#67413e"/><rect x="3.51" y="2.73" width="0.39" height="0.39" style="fill:#67413e"/><rect x="3.9" y="2.73" width="0.39" height="0.39" style="fill:#67413e"/><rect x="4.29" y="2.73" width="0.39" height="0.39" style="fill:#67413e"/><rect x="4.67" y="2.73" width="0.39" height="0.39" style="fill:#67413e"/><rect x="5.06" y="2.73" width="0.39" height="0.39" style="fill:#67413e"/><rect x="5.45" y="2.73" width="0.39" height="0.39" style="fill:#67413e"/><rect x="5.84" y="2.73" width="0.39" height="0.39" style="fill:#67413e"/><rect x="6.23" y="2.73" width="0.39" height="0.39" style="fill:#67413e"/><rect x="6.62" y="2.73" width="0.39" height="0.39" style="fill:#67413e"/><rect x="0.39" y="3.12" width="0.39" height="0.39" style="fill:#67413e"/><rect x="0.78" y="3.12" width="0.39" height="0.39" style="fill:#67413e"/><rect x="1.17" y="3.12" width="0.39" height="0.39" style="fill:#67413e"/><rect x="1.56" y="3.12" width="0.39" height="0.39" style="fill:#67413e"/><rect x="1.95" y="3.12" width="0.39" height="0.39" style="fill:#67413e"/><rect x="2.34" y="3.12" width="0.39" height="0.39" style="fill:#67413e"/><rect x="2.73" y="3.12" width="0.39" height="0.39" style="fill:#67413e"/><rect x="3.12" y="3.12" width="0.39" height="0.39" style="fill:#67413e"/><rect x="3.51" y="3.12" width="0.39" height="0.39" style="fill:#67413e"/><rect x="3.9" y="3.12" width="0.39" height="0.39" style="fill:#67413e"/><rect x="4.29" y="3.12" width="0.39" height="0.39" style="fill:#67413e"/><rect x="4.67" y="3.12" width="0.39" height="0.39" style="fill:#67413e"/><rect x="5.06" y="3.12" width="0.39" height="0.39" style="fill:#67413e"/><rect x="5.45" y="3.12" width="0.39" height="0.39" style="fill:#67413e"/><rect x="5.84" y="3.12" width="0.39" height="0.39" style="fill:#67413e"/><rect x="6.23" y="3.12" width="0.39" height="0.39" style="fill:#67413e"/><rect x="6.62" y="3.12" width="0.39" height="0.39" style="fill:#67413e"/><rect x="0.39" y="3.51" width="0.39" height="0.39" style="fill:#7a514f"/><rect x="0.78" y="3.51" width="0.39" height="0.39" style="fill:#7a514f"/><rect x="1.17" y="3.51" width="0.39" height="0.39" style="fill:#67413e"/><rect x="1.56" y="3.51" width="0.39" height="0.39" style="fill:#67413e"/><rect x="1.95" y="3.51" width="0.39" height="0.39" style="fill:#67413e"/><rect x="2.34" y="3.51" width="0.39" height="0.39" style="fill:#67413e"/><rect x="2.73" y="3.51" width="0.39" height="0.39" style="fill:#67413e"/><rect x="3.12" y="3.51" width="0.39" height="0.39" style="fill:#67413e"/><rect x="3.51" y="3.51" width="0.39" height="0.39" style="fill:#67413e"/><rect x="3.9" y="3.51" width="0.39" height="0.39" style="fill:#67413e"/><rect x="4.29" y="3.51" width="0.39" height="0.39" style="fill:#67413e"/><rect x="4.67" y="3.51" width="0.39" height="0.39" style="fill:#67413e"/><rect x="5.06" y="3.51" width="0.39" height="0.39" style="fill:#67413e"/><rect x="5.45" y="3.51" width="0.39" height="0.39" style="fill:#67413e"/><rect x="5.84" y="3.51" width="0.39" height="0.39" style="fill:#67413e"/><rect x="6.23" y="3.51" width="0.39" height="0.39" style="fill:#67413e"/><rect x="6.62" y="3.51" width="0.39" height="0.39" style="fill:#67413e"/><rect x="0.39" y="3.9" width="0.39" height="0.39" style="fill:#67413e"/><rect x="0.78" y="3.9" width="0.39" height="0.39" style="fill:#67413e"/><rect x="1.17" y="3.9" width="0.39" height="0.39" style="fill:#67413e"/><rect x="1.56" y="3.9" width="0.39" height="0.39" style="fill:#67413e"/><rect x="1.95" y="3.9" width="0.39" height="0.39" style="fill:#67413e"/><rect x="2.34" y="3.9" width="0.39" height="0.39" style="fill:#67413e"/><rect x="2.73" y="3.9" width="0.39" height="0.39" style="fill:#67413e"/><rect x="3.12" y="3.9" width="0.39" height="0.39" style="fill:#67413e"/><rect x="3.51" y="3.9" width="0.39" height="0.39" style="fill:#67413e"/><rect x="3.9" y="3.9" width="0.39" height="0.39" style="fill:#67413e"/><rect x="4.29" y="3.9" width="0.39" height="0.39" style="fill:#7a514f"/><rect x="4.67" y="3.9" width="0.39" height="0.39" style="fill:#7a514f"/><rect x="5.06" y="3.9" width="0.39" height="0.39" style="fill:#67413e"/><rect x="5.45" y="3.9" width="0.39" height="0.39" style="fill:#67413e"/><rect x="5.84" y="3.9" width="0.39" height="0.39" style="fill:#67413e"/><rect x="6.23" y="3.9" width="0.39" height="0.39" style="fill:#67413e"/><rect x="6.62" y="3.9" width="0.39" height="0.39" style="fill:#67413e"/><rect x="0.39" y="4.29" width="0.39" height="0.39" style="fill:#67413e"/><rect x="0.78" y="4.29" width="0.39" height="0.39" style="fill:#67413e"/><rect x="1.17" y="4.29" width="0.39" height="0.39" style="fill:#67413e"/><rect x="1.56" y="4.29" width="0.39" height="0.39" style="fill:#67413e"/><rect x="1.95" y="4.29" width="0.39" height="0.39" style="fill:#67413e"/><rect x="2.34" y="4.29" width="0.39" height="0.39" style="fill:#67413e"/><rect x="2.73" y="4.29" width="0.39" height="0.39" style="fill:#67413e"/><rect x="3.12" y="4.29" width="0.39" height="0.39" style="fill:#67413e"/><rect x="3.51" y="4.29" width="0.39" height="0.39" style="fill:#67413e"/><rect x="3.9" y="4.29" width="0.39" height="0.39" style="fill:#67413e"/><rect x="4.29" y="4.29" width="0.39" height="0.39" style="fill:#67413e"/><rect x="4.67" y="4.29" width="0.39" height="0.39" style="fill:#67413e"/><rect x="5.06" y="4.29" width="0.39" height="0.39" style="fill:#67413e"/><rect x="5.45" y="4.29" width="0.39" height="0.39" style="fill:#67413e"/><rect x="5.84" y="4.29" width="0.39" height="0.39" style="fill:#67413e"/><rect x="6.23" y="4.29" width="0.39" height="0.39" style="fill:#67413e"/><rect x="6.62" y="4.29" width="0.39" height="0.39" style="fill:#67413e"/><rect x="0.39" y="4.67" width="0.39" height="0.39" style="fill:#67413e"/><rect x="0.78" y="4.67" width="0.39" height="0.39" style="fill:#67413e"/><rect x="1.17" y="4.67" width="0.39" height="0.39" style="fill:#67413e"/><rect x="1.56" y="4.67" width="0.39" height="0.39" style="fill:#67413e"/><rect x="1.95" y="4.67" width="0.39" height="0.39" style="fill:#67413e"/><rect x="2.34" y="4.67" width="0.39" height="0.39" style="fill:#67413e"/><rect x="2.73" y="4.67" width="0.39" height="0.39" style="fill:#67413e"/><rect x="3.12" y="4.67" width="0.39" height="0.39" style="fill:#67413e"/><rect x="3.51" y="4.67" width="0.39" height="0.39" style="fill:#67413e"/><rect x="3.9" y="4.67" width="0.39" height="0.39" style="fill:#67413e"/><rect x="4.29" y="4.67" width="0.39" height="0.39" style="fill:#67413e"/><rect x="4.67" y="4.67" width="0.39" height="0.39" style="fill:#67413e"/><rect x="5.06" y="4.67" width="0.39" height="0.39" style="fill:#67413e"/><rect x="5.45" y="4.67" width="0.39" height="0.39" style="fill:#67413e"/><rect x="5.84" y="4.67" width="0.39" height="0.39" style="fill:#67413e"/><rect x="6.23" y="4.67" width="0.39" height="0.39" style="fill:#67413e"/><rect x="6.62" y="4.67" width="0.39" height="0.39" style="fill:#67413e"/><rect x="0.39" y="5.06" width="0.39" height="0.39" style="fill:#67413e"/><rect x="0.78" y="5.06" width="0.39" height="0.39" style="fill:#67413e"/><rect x="1.17" y="5.06" width="0.39" height="0.39" style="fill:#67413e"/><rect x="1.56" y="5.06" width="0.39" height="0.39" style="fill:#67413e"/><rect x="1.95" y="5.06" width="0.39" height="0.39" style="fill:#67413e"/><rect x="2.34" y="5.06" width="0.39" height="0.39" style="fill:#67413e"/><rect x="2.73" y="5.06" width="0.39" height="0.39" style="fill:#67413e"/><rect x="3.12" y="5.06" width="0.39" height="0.39" style="fill:#67413e"/><rect x="3.51" y="5.06" width="0.39" height="0.39" style="fill:#67413e"/><rect x="3.9" y="5.06" width="0.39" height="0.39" style="fill:#67413e"/><rect x="4.29" y="5.06" width="0.39" height="0.39" style="fill:#67413e"/><rect x="4.67" y="5.06" width="0.39" height="0.39" style="fill:#67413e"/><rect x="5.06" y="5.06" width="0.39" height="0.39" style="fill:#67413e"/><rect x="5.45" y="5.06" width="0.39" height="0.39" style="fill:#67413e"/><rect x="5.84" y="5.06" width="0.39" height="0.39" style="fill:#67413e"/><rect x="6.23" y="5.06" width="0.39" height="0.39" style="fill:#67413e"/><rect x="6.62" y="5.06" width="0.39" height="0.39" style="fill:#67413e"/><rect x="0.39" y="5.45" width="0.39" height="0.39" style="fill:#67413e"/><rect x="0.78" y="5.45" width="0.39" height="0.39" style="fill:#67413e"/><rect x="1.17" y="5.45" width="0.39" height="0.39" style="fill:#67413e"/><rect x="1.56" y="5.45" width="0.39" height="0.39" style="fill:#67413e"/><rect x="1.95" y="5.45" width="0.39" height="0.39" style="fill:#67413e"/><rect x="2.34" y="5.45" width="0.39" height="0.39" style="fill:#67413e"/><rect x="2.73" y="5.45" width="0.39" height="0.39" style="fill:#67413e"/><rect x="3.12" y="5.45" width="0.39" height="0.39" style="fill:#67413e"/><rect x="3.51" y="5.45" width="0.39" height="0.39" style="fill:#67413e"/><rect x="3.9" y="5.45" width="0.39" height="0.39" style="fill:#67413e"/><rect x="4.29" y="5.45" width="0.39" height="0.39" style="fill:#67413e"/><rect x="4.67" y="5.45" width="0.39" height="0.39" style="fill:#67413e"/><rect x="5.06" y="5.45" width="0.39" height="0.39" style="fill:#67413e"/><rect x="5.45" y="5.45" width="0.39" height="0.39" style="fill:#67413e"/><rect x="5.84" y="5.45" width="0.39" height="0.39" style="fill:#67413e"/><rect x="6.23" y="5.45" width="0.39" height="0.39" style="fill:#7a514f"/><rect x="6.62" y="5.45" width="0.39" height="0.39" style="fill:#7a514f"/><rect x="0.39" y="5.84" width="0.39" height="0.39" style="fill:#67413e"/><rect x="0.78" y="5.84" width="0.39" height="0.39" style="fill:#67413e"/><rect x="1.17" y="5.84" width="0.39" height="0.39" style="fill:#67413e"/><rect x="1.56" y="5.84" width="0.39" height="0.39" style="fill:#67413e"/><rect x="1.95" y="5.84" width="0.39" height="0.39" style="fill:#67413e"/><rect x="2.34" y="5.84" width="0.39" height="0.39" style="fill:#67413e"/><rect x="2.73" y="5.84" width="0.39" height="0.39" style="fill:#67413e"/><rect x="3.12" y="5.84" width="0.39" height="0.39" style="fill:#67413e"/><rect x="3.51" y="5.84" width="0.39" height="0.39" style="fill:#67413e"/><rect x="3.9" y="5.84" width="0.39" height="0.39" style="fill:#67413e"/><rect x="4.29" y="5.84" width="0.39" height="0.39" style="fill:#67413e"/><rect x="4.67" y="5.84" width="0.39" height="0.39" style="fill:#67413e"/><rect x="5.06" y="5.84" width="0.39" height="0.39" style="fill:#67413e"/><rect x="5.45" y="5.84" width="0.39" height="0.39" style="fill:#67413e"/><rect x="5.84" y="5.84" width="0.39" height="0.39" style="fill:#67413e"/><rect x="6.23" y="5.84" width="0.39" height="0.39" style="fill:#67413e"/><rect x="6.62" y="5.84" width="0.39" height="0.39" style="fill:#67413e"/><rect x="0.39" y="6.23" width="0.39" height="0.39" style="fill:#67413e"/><rect x="0.78" y="6.23" width="0.39" height="0.39" style="fill:#67413e"/><rect x="1.17" y="6.23" width="0.39" height="0.39" style="fill:#67413e"/><rect x="1.56" y="6.23" width="0.39" height="0.39" style="fill:#67413e"/><rect x="1.95" y="6.23" width="0.39" height="0.39" style="fill:#67413e"/><rect x="2.34" y="6.23" width="0.39" height="0.39" style="fill:#67413e"/><rect x="2.73" y="6.23" width="0.39" height="0.39" style="fill:#67413e"/><rect x="3.12" y="6.23" width="0.39" height="0.39" style="fill:#67413e"/><rect x="3.51" y="6.23" width="0.39" height="0.39" style="fill:#67413e"/><rect x="3.9" y="6.23" width="0.39" height="0.39" style="fill:#67413e"/><rect x="4.29" y="6.23" width="0.39" height="0.39" style="fill:#67413e"/><rect x="4.67" y="6.23" width="0.39" height="0.39" style="fill:#67413e"/><rect x="5.06" y="6.23" width="0.39" height="0.39" style="fill:#7a514f"/><rect x="5.45" y="6.23" width="0.39" height="0.39" style="fill:#7a514f"/><rect x="5.84" y="6.23" width="0.39" height="0.39" style="fill:#67413e"/><rect x="6.23" y="6.23" width="0.39" height="0.39" style="fill:#67413e"/><rect x="6.62" y="6.23" width="0.39" height="0.39" style="fill:#67413e"/><rect x="0.39" y="6.62" width="0.39" height="0.39" style="fill:#67413e"/><rect x="0.78" y="6.62" width="0.39" height="0.39" style="fill:#67413e"/><rect x="1.17" y="6.62" width="0.39" height="0.39" style="fill:#67413e"/><rect x="1.56" y="6.62" width="0.39" height="0.39" style="fill:#67413e"/><rect x="1.95" y="6.62" width="0.39" height="0.39" style="fill:#7a514f"/><rect x="2.34" y="6.62" width="0.39" height="0.39" style="fill:#7a514f"/><rect x="2.73" y="6.62" width="0.39" height="0.39" style="fill:#67413e"/><rect x="3.12" y="6.62" width="0.39" height="0.39" style="fill:#67413e"/><rect x="3.51" y="6.62" width="0.39" height="0.39" style="fill:#67413e"/><rect x="3.9" y="6.62" width="0.39" height="0.39" style="fill:#67413e"/><rect x="4.29" y="6.62" width="0.39" height="0.39" style="fill:#67413e"/><rect x="4.67" y="6.62" width="0.39" height="0.39" style="fill:#67413e"/><rect x="5.06" y="6.62" width="0.39" height="0.39" style="fill:#67413e"/><rect x="5.45" y="6.62" width="0.39" height="0.39" style="fill:#67413e"/><rect x="5.84" y="6.62" width="0.39" height="0.39" style="fill:#67413e"/><rect x="6.23" y="6.62" width="0.39" height="0.39" style="fill:#67413e"/><rect x="6.62" y="6.62" width="0.39" height="0.39" style="fill:#67413e"/><rect x="0.39" y="7.01" width="0.39" height="0.39" style="fill:#67413e"/><rect x="0.78" y="7.01" width="0.39" height="0.39" style="fill:#67413e"/><rect x="1.17" y="7.01" width="0.39" height="0.39" style="fill:#7a514f"/><rect x="1.56" y="7.01" width="0.39" height="0.39" style="fill:#7a514f"/><rect x="1.95" y="7.01" width="0.39" height="0.39" style="fill:#67413e"/><rect x="2.34" y="7.01" width="0.39" height="0.39" style="fill:#67413e"/><rect x="2.73" y="7.01" width="0.39" height="0.39" style="fill:#67413e"/><rect x="3.12" y="7.01" width="0.39" height="0.39" style="fill:#67413e"/><rect x="3.51" y="7.01" width="0.39" height="0.39" style="fill:#67413e"/><rect x="3.9" y="7.01" width="0.39" height="0.39" style="fill:#67413e"/><rect x="4.29" y="7.01" width="0.39" height="0.39" style="fill:#67413e"/><rect x="4.67" y="7.01" width="0.39" height="0.39" style="fill:#67413e"/><rect x="5.06" y="7.01" width="0.39" height="0.39" style="fill:#67413e"/><rect x="5.45" y="7.01" width="0.39" height="0.39" style="fill:#67413e"/><rect x="5.84" y="7.01" width="0.39" height="0.39" style="fill:#67413e"/><rect x="6.23" y="7.01" width="0.39" height="0.39" style="fill:#67413e"/><rect x="6.62" y="7.01" width="0.39" height="0.39" style="fill:#67413e"/><rect x="0.39" y="7.4" width="0.39" height="0.39" style="fill:#67413e"/><rect x="0.78" y="7.4" width="0.39" height="0.39" style="fill:#67413e"/><rect x="1.17" y="7.4" width="0.39" height="0.39" style="fill:#67413e"/><rect x="1.56" y="7.4" width="0.39" height="0.39" style="fill:#67413e"/><rect x="1.95" y="7.4" width="0.39" height="0.39" style="fill:#67413e"/><rect x="2.34" y="7.4" width="0.39" height="0.39" style="fill:#67413e"/><rect x="2.73" y="7.4" width="0.39" height="0.39" style="fill:#67413e"/><rect x="3.12" y="7.4" width="0.39" height="0.39" style="fill:#67413e"/><rect x="3.51" y="7.4" width="0.39" height="0.39" style="fill:#67413e"/><rect x="3.9" y="7.4" width="0.39" height="0.39" style="fill:#67413e"/><rect x="4.29" y="7.4" width="0.39" height="0.39" style="fill:#67413e"/><rect x="4.67" y="7.4" width="0.39" height="0.39" style="fill:#67413e"/><rect x="5.06" y="7.4" width="0.39" height="0.39" style="fill:#67413e"/><rect x="5.45" y="7.4" width="0.39" height="0.39" style="fill:#67413e"/><rect x="5.84" y="7.4" width="0.39" height="0.39" style="fill:#67413e"/><rect x="6.23" y="7.4" width="0.39" height="0.39" style="fill:#67413e"/><rect x="6.62" y="7.4" width="0.39" height="0.39" style="fill:#67413e"/><rect x="0.39" y="7.79" width="0.39" height="0.39" style="fill:#67413e"/><rect x="0.78" y="7.79" width="0.39" height="0.39" style="fill:#67413e"/><rect x="1.17" y="7.79" width="0.39" height="0.39" style="fill:#67413e"/><rect x="1.56" y="7.79" width="0.39" height="0.39" style="fill:#67413e"/><rect x="1.95" y="7.79" width="0.39" height="0.39" style="fill:#67413e"/><rect x="2.34" y="7.79" width="0.39" height="0.39" style="fill:#67413e"/><rect x="2.73" y="7.79" width="0.39" height="0.39" style="fill:#67413e"/><rect x="3.12" y="7.79" width="0.39" height="0.39" style="fill:#67413e"/><rect x="3.51" y="7.79" width="0.39" height="0.39" style="fill:#67413e"/><rect x="3.9" y="7.79" width="0.39" height="0.39" style="fill:#67413e"/><rect x="4.29" y="7.79" width="0.39" height="0.39" style="fill:#67413e"/><rect x="4.67" y="7.79" width="0.39" height="0.39" style="fill:#67413e"/><rect x="5.06" y="7.79" width="0.39" height="0.39" style="fill:#67413e"/><rect x="5.45" y="7.79" width="0.39" height="0.39" style="fill:#67413e"/><rect x="5.84" y="7.79" width="0.39" height="0.39" style="fill:#67413e"/><rect x="6.23" y="7.79" width="0.39" height="0.39" style="fill:#67413e"/><rect x="6.62" y="7.79" width="0.39" height="0.39" style="fill:#67413e"/><rect x="0.39" y="8.18" width="0.39" height="0.39" style="fill:#67413e"/><rect x="0.78" y="8.18" width="0.39" height="0.39" style="fill:#67413e"/><rect x="1.17" y="8.18" width="0.39" height="0.39" style="fill:#67413e"/><rect x="1.56" y="8.18" width="0.39" height="0.39" style="fill:#67413e"/><rect x="1.95" y="8.18" width="0.39" height="0.39" style="fill:#67413e"/><rect x="2.34" y="8.18" width="0.39" height="0.39" style="fill:#67413e"/><rect x="2.73" y="8.18" width="0.39" height="0.39" style="fill:#67413e"/><rect x="3.12" y="8.18" width="0.39" height="0.39" style="fill:#67413e"/><rect x="3.51" y="8.18" width="0.39" height="0.39" style="fill:#67413e"/><rect x="3.9" y="8.18" width="0.39" height="0.39" style="fill:#7a514f"/><rect x="4.29" y="8.18" width="0.39" height="0.39" style="fill:#7a514f"/><rect x="4.67" y="8.18" width="0.39" height="0.39" style="fill:#67413e"/><rect x="5.06" y="8.18" width="0.39" height="0.39" style="fill:#67413e"/><rect x="5.45" y="8.18" width="0.39" height="0.39" style="fill:#67413e"/><rect x="5.84" y="8.18" width="0.39" height="0.39" style="fill:#67413e"/><rect x="6.23" y="8.18" width="0.39" height="0.39" style="fill:#67413e"/><rect x="6.62" y="8.18" width="0.39" height="0.39" style="fill:#67413e"/><rect x="0.39" y="8.57" width="0.39" height="0.39" style="fill:#67413e"/><rect x="0.78" y="8.57" width="0.39" height="0.39" style="fill:#67413e"/><rect x="1.17" y="8.57" width="0.39" height="0.39" style="fill:#67413e"/><rect x="1.56" y="8.57" width="0.39" height="0.39" style="fill:#67413e"/><rect x="1.95" y="8.57" width="0.39" height="0.39" style="fill:#67413e"/><rect x="2.34" y="8.57" width="0.39" height="0.39" style="fill:#67413e"/><rect x="2.73" y="8.57" width="0.39" height="0.39" style="fill:#67413e"/><rect x="3.12" y="8.57" width="0.39" height="0.39" style="fill:#67413e"/><rect x="3.51" y="8.57" width="0.39" height="0.39" style="fill:#67413e"/><rect x="3.9" y="8.57" width="0.39" height="0.39" style="fill:#67413e"/><rect x="4.29" y="8.57" width="0.39" height="0.39" style="fill:#67413e"/><rect x="4.67" y="8.57" width="0.39" height="0.39" style="fill:#67413e"/><rect x="5.06" y="8.57" width="0.39" height="0.39" style="fill:#67413e"/><rect x="5.45" y="8.57" width="0.39" height="0.39" style="fill:#67413e"/><rect x="5.84" y="8.57" width="0.39" height="0.39" style="fill:#67413e"/><rect x="6.23" y="8.57" width="0.39" height="0.39" style="fill:#67413e"/><rect x="6.62" y="8.57" width="0.39" height="0.39" style="fill:#67413e"/><rect x="7.01" y="2.34" width="0.39" height="0.39" style="fill:#67413e"/><rect x="7.4" y="2.34" width="0.39" height="0.39" style="fill:#67413e"/><rect x="7.79" y="2.34" width="0.39" height="0.39" style="fill:#563635"/><rect x="8.18" y="2.34" width="0.39" height="0.39" style="fill:#563635"/><rect x="8.57" y="2.34" width="0.39" height="0.39" style="fill:#563635"/><rect x="8.96" y="2.34" width="0.39" height="0.39" style="fill:#563635"/><rect x="9.35" y="2.34" width="0.39" height="0.39" style="fill:#563635"/><rect x="9.74" y="2.34" width="0.39" height="0.39" style="fill:#563635"/><rect x="10.13" y="2.34" width="0.39" height="0.39" style="fill:#563635"/><rect x="10.52" y="2.34" width="0.39" height="0.39" style="fill:#563635"/><rect x="7.01" y="2.73" width="0.39" height="0.39" style="fill:#563635"/><rect x="7.4" y="2.73" width="0.39" height="0.39" style="fill:#563635"/><rect x="7.79" y="2.73" width="0.39" height="0.39" style="fill:#563635"/><rect x="8.18" y="2.73" width="0.39" height="0.39" style="fill:#563635"/><rect x="8.57" y="2.73" width="0.39" height="0.39" style="fill:#563635"/><rect x="8.96" y="2.73" width="0.39" height="0.39" style="fill:#563635"/><rect x="9.35" y="2.73" width="0.39" height="0.39" style="fill:#563635"/><rect x="9.74" y="2.73" width="0.39" height="0.39" style="fill:#563635"/><rect x="10.13" y="2.73" width="0.39" height="0.39" style="fill:#563635"/><rect x="10.52" y="2.73" width="0.39" height="0.39" style="fill:#563635"/><rect x="7.01" y="3.12" width="0.39" height="0.39" style="fill:#67413e"/><rect x="7.4" y="3.12" width="0.39" height="0.39" style="fill:#67413e"/><rect x="7.79" y="3.12" width="0.39" height="0.39" style="fill:#563635"/><rect x="8.18" y="3.12" width="0.39" height="0.39" style="fill:#563635"/><rect x="8.57" y="3.12" width="0.39" height="0.39" style="fill:#563635"/><rect x="8.96" y="3.12" width="0.39" height="0.39" style="fill:#563635"/><rect x="9.35" y="3.12" width="0.39" height="0.39" style="fill:#563635"/><rect x="9.74" y="3.12" width="0.39" height="0.39" style="fill:#563635"/><rect x="10.13" y="3.12" width="0.39" height="0.39" style="fill:#563635"/><rect x="10.52" y="3.12" width="0.39" height="0.39" style="fill:#563635"/><rect x="7.01" y="3.51" width="0.39" height="0.39" style="fill:#563635"/><rect x="7.4" y="3.51" width="0.39" height="0.39" style="fill:#563635"/><rect x="7.79" y="3.51" width="0.39" height="0.39" style="fill:#563635"/><rect x="8.18" y="3.51" width="0.39" height="0.39" style="fill:#563635"/><rect x="8.57" y="3.51" width="0.39" height="0.39" style="fill:#563635"/><rect x="8.96" y="3.51" width="0.39" height="0.39" style="fill:#563635"/><rect x="9.35" y="3.51" width="0.39" height="0.39" style="fill:#563635"/><rect x="9.74" y="3.51" width="0.39" height="0.39" style="fill:#563635"/><rect x="10.13" y="3.51" width="0.39" height="0.39" style="fill:#563635"/><rect x="10.52" y="3.51" width="0.39" height="0.39" style="fill:#563635"/><rect x="7.01" y="3.9" width="0.39" height="0.39" style="fill:#67413e"/><rect x="7.4" y="3.9" width="0.39" height="0.39" style="fill:#67413e"/><rect x="7.79" y="3.9" width="0.39" height="0.39" style="fill:#563635"/><rect x="8.18" y="3.9" width="0.39" height="0.39" style="fill:#563635"/><rect x="8.57" y="3.9" width="0.39" height="0.39" style="fill:#563635"/><rect x="8.96" y="3.9" width="0.39" height="0.39" style="fill:#563635"/><rect x="9.35" y="3.9" width="0.39" height="0.39" style="fill:#563635"/><rect x="9.74" y="3.9" width="0.39" height="0.39" style="fill:#563635"/><rect x="10.13" y="3.9" width="0.39" height="0.39" style="fill:#563635"/><rect x="10.52" y="3.9" width="0.39" height="0.39" style="fill:#563635"/><rect x="7.01" y="4.29" width="0.39" height="0.39" style="fill:#563635"/><rect x="7.4" y="4.29" width="0.39" height="0.39" style="fill:#563635"/><rect x="7.79" y="4.29" width="0.39" height="0.39" style="fill:#563635"/><rect x="8.18" y="4.29" width="0.39" height="0.39" style="fill:#563635"/><rect x="8.57" y="4.29" width="0.39" height="0.39" style="fill:#563635"/><rect x="8.96" y="4.29" width="0.39" height="0.39" style="fill:#563635"/><rect x="9.35" y="4.29" width="0.39" height="0.39" style="fill:#563635"/><rect x="9.74" y="4.29" width="0.39" height="0.39" style="fill:#563635"/><rect x="10.13" y="4.29" width="0.39" height="0.39" style="fill:#563635"/><rect x="10.52" y="4.29" width="0.39" height="0.39" style="fill:#563635"/><rect x="7.01" y="4.67" width="0.39" height="0.39" style="fill:#67413e"/><rect x="7.4" y="4.67" width="0.39" height="0.39" style="fill:#67413e"/><rect x="7.79" y="4.67" width="0.39" height="0.39" style="fill:#563635"/><rect x="8.18" y="4.67" width="0.39" height="0.39" style="fill:#563635"/><rect x="8.57" y="4.67" width="0.39" height="0.39" style="fill:#563635"/><rect x="8.96" y="4.67" width="0.39" height="0.39" style="fill:#563635"/><rect x="9.35" y="4.67" width="0.39" height="0.39" style="fill:#563635"/><rect x="9.74" y="4.67" width="0.39" height="0.39" style="fill:#563635"/><rect x="10.13" y="4.67" width="0.39" height="0.39" style="fill:#563635"/><rect x="10.52" y="4.67" width="0.39" height="0.39" style="fill:#563635"/><rect x="7.01" y="5.06" width="0.39" height="0.39" style="fill:#563635"/><rect x="7.4" y="5.06" width="0.39" height="0.39" style="fill:#563635"/><rect x="7.79" y="5.06" width="0.39" height="0.39" style="fill:#563635"/><rect x="8.18" y="5.06" width="0.39" height="0.39" style="fill:#563635"/><rect x="8.57" y="5.06" width="0.39" height="0.39" style="fill:#563635"/><rect x="8.96" y="5.06" width="0.39" height="0.39" style="fill:#563635"/><rect x="9.35" y="5.06" width="0.39" height="0.39" style="fill:#563635"/><rect x="9.74" y="5.06" width="0.39" height="0.39" style="fill:#563635"/><rect x="10.13" y="5.06" width="0.39" height="0.39" style="fill:#563635"/><rect x="10.52" y="5.06" width="0.39" height="0.39" style="fill:#563635"/><rect x="7.01" y="5.45" width="0.39" height="0.39" style="fill:#67413e"/><rect x="7.4" y="5.45" width="0.39" height="0.39" style="fill:#67413e"/><rect x="7.79" y="5.45" width="0.39" height="0.39" style="fill:#563635"/><rect x="8.18" y="5.45" width="0.39" height="0.39" style="fill:#563635"/><rect x="8.57" y="5.45" width="0.39" height="0.39" style="fill:#563635"/><rect x="8.96" y="5.45" width="0.39" height="0.39" style="fill:#563635"/><rect x="9.35" y="5.45" width="0.39" height="0.39" style="fill:#563635"/><rect x="9.74" y="5.45" width="0.39" height="0.39" style="fill:#563635"/><rect x="10.13" y="5.45" width="0.39" height="0.39" style="fill:#563635"/><rect x="10.52" y="5.45" width="0.39" height="0.39" style="fill:#563635"/><rect x="7.01" y="5.84" width="0.39" height="0.39" style="fill:#563635"/><rect x="7.4" y="5.84" width="0.39" height="0.39" style="fill:#563635"/><rect x="7.79" y="5.84" width="0.39" height="0.39" style="fill:#563635"/><rect x="8.18" y="5.84" width="0.39" height="0.39" style="fill:#563635"/><rect x="8.57" y="5.84" width="0.39" height="0.39" style="fill:#563635"/><rect x="8.96" y="5.84" width="0.39" height="0.39" style="fill:#563635"/><rect x="9.35" y="5.84" width="0.39" height="0.39" style="fill:#563635"/><rect x="9.74" y="5.84" width="0.39" height="0.39" style="fill:#563635"/><rect x="10.13" y="5.84" width="0.39" height="0.39" style="fill:#563635"/><rect x="10.52" y="5.84" width="0.39" height="0.39" style="fill:#563635"/><rect x="7.01" y="6.23" width="0.39" height="0.39" style="fill:#67413e"/><rect x="7.4" y="6.23" width="0.39" height="0.39" style="fill:#67413e"/><rect x="7.79" y="6.23" width="0.39" height="0.39" style="fill:#563635"/><rect x="8.18" y="6.23" width="0.39" height="0.39" style="fill:#563635"/><rect x="8.57" y="6.23" width="0.39" height="0.39" style="fill:#563635"/><rect x="8.96" y="6.23" width="0.39" height="0.39" style="fill:#563635"/><rect x="9.35" y="6.23" width="0.39" height="0.39" style="fill:#563635"/><rect x="9.74" y="6.23" width="0.39" height="0.39" style="fill:#563635"/><rect x="10.13" y="6.23" width="0.39" height="0.39" style="fill:#563635"/><rect x="10.52" y="6.23" width="0.39" height="0.39" style="fill:#563635"/><rect x="7.01" y="6.62" width="0.39" height="0.39" style="fill:#563635"/><rect x="7.4" y="6.62" width="0.39" height="0.39" style="fill:#563635"/><rect x="7.79" y="6.62" width="0.39" height="0.39" style="fill:#563635"/><rect x="8.18" y="6.62" width="0.39" height="0.39" style="fill:#563635"/><rect x="8.57" y="6.62" width="0.39" height="0.39" style="fill:#563635"/><rect x="8.96" y="6.62" width="0.39" height="0.39" style="fill:#563635"/><rect x="9.35" y="6.62" width="0.39" height="0.39" style="fill:#563635"/><rect x="9.74" y="6.62" width="0.39" height="0.39" style="fill:#563635"/><rect x="10.13" y="6.62" width="0.39" height="0.39" style="fill:#563635"/><rect x="10.52" y="6.62" width="0.39" height="0.39" style="fill:#563635"/><rect x="7.01" y="7.01" width="0.39" height="0.39" style="fill:#67413e"/><rect x="7.4" y="7.01" width="0.39" height="0.39" style="fill:#67413e"/><rect x="7.79" y="7.01" width="0.39" height="0.39" style="fill:#563635"/><rect x="8.18" y="7.01" width="0.39" height="0.39" style="fill:#563635"/><rect x="8.57" y="7.01" width="0.39" height="0.39" style="fill:#563635"/><rect x="8.96" y="7.01" width="0.39" height="0.39" style="fill:#563635"/><rect x="9.35" y="7.01" width="0.39" height="0.39" style="fill:#563635"/><rect x="9.74" y="7.01" width="0.39" height="0.39" style="fill:#563635"/><rect x="10.13" y="7.01" width="0.39" height="0.39" style="fill:#563635"/><rect x="10.52" y="7.01" width="0.39" height="0.39" style="fill:#563635"/><rect x="7.01" y="7.4" width="0.39" height="0.39" style="fill:#563635"/><rect x="7.4" y="7.4" width="0.39" height="0.39" style="fill:#563635"/><rect x="7.79" y="7.4" width="0.39" height="0.39" style="fill:#563635"/><rect x="8.18" y="7.4" width="0.39" height="0.39" style="fill:#563635"/><rect x="8.57" y="7.4" width="0.39" height="0.39" style="fill:#563635"/><rect x="8.96" y="7.4" width="0.39" height="0.39" style="fill:#563635"/><rect x="9.35" y="7.4" width="0.39" height="0.39" style="fill:#563635"/><rect x="9.74" y="7.4" width="0.39" height="0.39" style="fill:#563635"/><rect x="10.13" y="7.4" width="0.39" height="0.39" style="fill:#563635"/><rect x="10.52" y="7.4" width="0.39" height="0.39" style="fill:#563635"/><rect x="7.01" y="7.79" width="0.39" height="0.39" style="fill:#67413e"/><rect x="7.4" y="7.79" width="0.39" height="0.39" style="fill:#67413e"/><rect x="7.79" y="7.79" width="0.39" height="0.39" style="fill:#563635"/><rect x="8.18" y="7.79" width="0.39" height="0.39" style="fill:#563635"/><rect x="8.57" y="7.79" width="0.39" height="0.39" style="fill:#563635"/><rect x="8.96" y="7.79" width="0.39" height="0.39" style="fill:#563635"/><rect x="9.35" y="7.79" width="0.39" height="0.39" style="fill:#563635"/><rect x="9.74" y="7.79" width="0.39" height="0.39" style="fill:#563635"/><rect x="10.13" y="7.79" width="0.39" height="0.39" style="fill:#563635"/><rect x="10.52" y="7.79" width="0.39" height="0.39" style="fill:#563635"/><rect x="7.01" y="8.18" width="0.39" height="0.39" style="fill:#563635"/><rect x="7.4" y="8.18" width="0.39" height="0.39" style="fill:#563635"/><rect x="7.79" y="8.18" width="0.39" height="0.39" style="fill:#563635"/><rect x="8.18" y="8.18" width="0.39" height="0.39" style="fill:#563635"/><rect x="8.57" y="8.18" width="0.39" height="0.39" style="fill:#563635"/><rect x="8.96" y="8.18" width="0.39" height="0.39" style="fill:#563635"/><rect x="9.35" y="8.18" width="0.39" height="0.39" style="fill:#563635"/><rect x="9.74" y="8.18" width="0.39" height="0.39" style="fill:#563635"/><rect x="10.13" y="8.18" width="0.39" height="0.39" style="fill:#563635"/><rect x="10.52" y="8.18" width="0.39" height="0.39" style="fill:#563635"/><rect x="7.01" y="8.57" width="0.39" height="0.39" style="fill:#67413e"/><rect x="7.4" y="8.57" width="0.39" height="0.39" style="fill:#67413e"/><rect x="7.79" y="8.57" width="0.39" height="0.39" style="fill:#563635"/><rect x="8.18" y="8.57" width="0.39" height="0.39" style="fill:#563635"/><rect x="8.57" y="8.57" width="0.39" height="0.39" style="fill:#563635"/><rect x="8.96" y="8.57" width="0.39" height="0.39" style="fill:#563635"/><rect x="9.35" y="8.57" width="0.39" height="0.39" style="fill:#563635"/><rect x="9.74" y="8.57" width="0.39" height="0.39" style="fill:#563635"/><rect x="10.13" y="8.57" width="0.39" height="0.39" style="fill:#563635"/><rect x="10.52" y="8.57" width="0.39" height="0.39" style="fill:#563635"/><rect x="0.39" width="0.39" height="0.39" style="fill:#e9efff"/><rect x="0.78" width="0.39" height="0.39" style="fill:#e9efff"/><rect x="1.17" width="0.39" height="0.39" style="fill:#e9efff"/><rect x="1.56" width="0.39" height="0.39" style="fill:#e9efff"/><rect x="1.95" width="0.39" height="0.39" style="fill:#e9efff"/><rect x="2.34" width="0.39" height="0.39" style="fill:#e9efff"/><rect x="2.73" width="0.39" height="0.39" style="fill:#cbd8fe"/><rect x="3.12" width="0.39" height="0.39" style="fill:#e9efff"/><rect x="3.51" width="0.39" height="0.39" style="fill:#e9efff"/><rect x="3.9" width="0.39" height="0.39" style="fill:#e9efff"/><rect x="4.29" width="0.39" height="0.39" style="fill:#e9efff"/><rect x="4.67" width="0.39" height="0.39" style="fill:#e9efff"/><rect x="5.06" width="0.39" height="0.39" style="fill:#e9efff"/><rect x="5.45" width="0.39" height="0.39" style="fill:#e9efff"/><rect x="5.84" width="0.39" height="0.39" style="fill:#e9efff"/><rect x="6.23" width="0.39" height="0.39" style="fill:#e9efff"/><rect x="6.62" width="0.39" height="0.39" style="fill:#e9efff"/><rect x="0.39" y="0.39" width="0.39" height="0.39" style="fill:#e9efff"/><rect x="0.78" y="0.39" width="0.39" height="0.39" style="fill:#e9efff"/><rect x="1.17" y="0.39" width="0.39" height="0.39" style="fill:#e9efff"/><rect x="1.56" y="0.39" width="0.39" height="0.39" style="fill:#e9efff"/><rect x="1.95" y="0.39" width="0.39" height="0.39" style="fill:#e9efff"/><rect x="2.34" y="0.39" width="0.39" height="0.39" style="fill:#e9efff"/><rect x="2.73" y="0.39" width="0.39" height="0.39" style="fill:#e9efff"/><rect x="3.12" y="0.39" width="0.39" height="0.39" style="fill:#7a514f"/><rect x="3.51" y="0.39" width="0.39" height="0.39" style="fill:#7a514f"/><rect x="3.9" y="0.39" width="0.39" height="0.39" style="fill:#e9efff"/><rect x="4.29" y="0.39" width="0.39" height="0.39" style="fill:#7a514f"/><rect x="4.67" y="0.39" width="0.39" height="0.39" style="fill:#7a514f"/><rect x="5.06" y="0.39" width="0.39" height="0.39" style="fill:#7a514f"/><rect x="5.45" y="0.39" width="0.39" height="0.39" style="fill:#7a514f"/><rect x="5.84" y="0.39" width="0.39" height="0.39" style="fill:#e9efff"/><rect x="6.23" y="0.39" width="0.39" height="0.39" style="fill:#7a514f"/><rect x="6.62" y="0.39" width="0.39" height="0.39" style="fill:#7a514f"/><rect x="0.39" y="0.78" width="0.39" height="0.39" style="fill:#7a514f"/><rect width="0.39" height="0.39" style="fill:#e9efff"/><rect y="0.39" width="0.39" height="0.39" style="fill:#7a514f"/><rect y="0.78" width="0.39" height="0.39" style="fill:#7a514f"/><rect x="0.78" y="0.78" width="0.39" height="0.39" style="fill:#e9efff"/><rect x="1.17" y="0.78" width="0.39" height="0.39" style="fill:#e9efff"/><rect x="1.56" y="0.78" width="0.39" height="0.39" style="fill:#e9efff"/><rect x="1.95" y="0.78" width="0.39" height="0.39" style="fill:#cbd8fe"/><rect x="2.34" y="0.78" width="0.39" height="0.39" style="fill:#e9efff"/><rect x="2.73" y="0.78" width="0.39" height="0.39" style="fill:#7a514f"/><rect x="3.12" y="0.78" width="0.39" height="0.39" style="fill:#7a514f"/><rect x="3.51" y="0.78" width="0.39" height="0.39" style="fill:#7a514f"/><rect x="3.9" y="0.78" width="0.39" height="0.39" style="fill:#e9efff"/><rect x="4.29" y="0.78" width="0.39" height="0.39" style="fill:#7a514f"/><rect x="4.67" y="0.78" width="0.39" height="0.39" style="fill:#7a514f"/><rect x="5.06" y="0.78" width="0.39" height="0.39" style="fill:#7a514f"/><rect x="5.45" y="0.78" width="0.39" height="0.39" style="fill:#7a514f"/><rect x="5.84" y="0.78" width="0.39" height="0.39" style="fill:#7a514f"/><rect x="6.23" y="0.78" width="0.39" height="0.39" style="fill:#7a514f"/><rect x="6.62" y="0.78" width="0.39" height="0.39" style="fill:#7a514f"/><rect x="0.39" y="1.17" width="0.39" height="0.39" style="fill:#67413e"/><rect x="0.78" y="1.17" width="0.39" height="0.39" style="fill:#67413e"/><rect x="1.17" y="1.17" width="0.39" height="0.39" style="fill:#e9efff"/><rect x="1.56" y="1.17" width="0.39" height="0.39" style="fill:#cbd8fe"/><rect x="1.95" y="1.17" width="0.39" height="0.39" style="fill:#cbd8fe"/><rect x="2.34" y="1.17" width="0.39" height="0.39" style="fill:#67413e"/><rect x="2.73" y="1.17" width="0.39" height="0.39" style="fill:#67413e"/><rect x="3.12" y="1.17" width="0.39" height="0.39" style="fill:#67413e"/><rect x="3.51" y="1.17" width="0.39" height="0.39" style="fill:#67413e"/><rect x="3.9" y="1.17" width="0.39" height="0.39" style="fill:#e9efff"/><rect x="4.29" y="1.17" width="0.39" height="0.39" style="fill:#67413e"/><rect x="4.67" y="1.17" width="0.39" height="0.39" style="fill:#67413e"/><rect x="5.06" y="1.17" width="0.39" height="0.39" style="fill:#67413e"/><rect x="5.45" y="1.17" width="0.39" height="0.39" style="fill:#67413e"/><rect x="5.84" y="1.17" width="0.39" height="0.39" style="fill:#67413e"/><rect x="6.23" y="1.17" width="0.39" height="0.39" style="fill:#67413e"/><rect x="6.62" y="1.17" width="0.39" height="0.39" style="fill:#67413e"/><rect x="0.39" y="1.56" width="0.39" height="0.39" style="fill:#7a514f"/><rect x="0.78" y="1.56" width="0.39" height="0.39" style="fill:#7a514f"/><rect x="1.17" y="1.56" width="0.39" height="0.39" style="fill:#67413e"/><rect x="1.56" y="1.56" width="0.39" height="0.39" style="fill:#cbd8fe"/><rect x="1.95" y="1.56" width="0.39" height="0.39" style="fill:#67413e"/><rect x="2.34" y="1.56" width="0.39" height="0.39" style="fill:#67413e"/><rect x="2.73" y="1.56" width="0.39" height="0.39" style="fill:#67413e"/><rect x="3.12" y="1.56" width="0.39" height="0.39" style="fill:#67413e"/><rect x="3.51" y="1.56" width="0.39" height="0.39" style="fill:#67413e"/><rect x="3.9" y="1.56" width="0.39" height="0.39" style="fill:#67413e"/><rect x="4.29" y="1.56" width="0.39" height="0.39" style="fill:#67413e"/><rect x="4.67" y="1.56" width="0.39" height="0.39" style="fill:#67413e"/><rect x="5.06" y="1.56" width="0.39" height="0.39" style="fill:#67413e"/><rect x="5.45" y="1.56" width="0.39" height="0.39" style="fill:#67413e"/><rect x="5.84" y="1.56" width="0.39" height="0.39" style="fill:#67413e"/><rect x="6.23" y="1.56" width="0.39" height="0.39" style="fill:#67413e"/><rect x="6.62" y="1.56" width="0.39" height="0.39" style="fill:#67413e"/><rect x="0.39" y="1.95" width="0.39" height="0.39" style="fill:#67413e"/><rect x="0.78" y="1.95" width="0.39" height="0.39" style="fill:#67413e"/><rect x="1.17" y="1.95" width="0.39" height="0.39" style="fill:#7a514f"/><rect x="1.56" y="1.95" width="0.39" height="0.39" style="fill:#7a514f"/><rect x="1.95" y="1.95" width="0.39" height="0.39" style="fill:#67413e"/><rect x="2.34" y="1.95" width="0.39" height="0.39" style="fill:#67413e"/><rect x="2.73" y="1.95" width="0.39" height="0.39" style="fill:#67413e"/><rect x="3.12" y="1.95" width="0.39" height="0.39" style="fill:#67413e"/><rect x="3.51" y="1.95" width="0.39" height="0.39" style="fill:#67413e"/><rect x="3.9" y="1.95" width="0.39" height="0.39" style="fill:#67413e"/><rect x="4.29" y="1.95" width="0.39" height="0.39" style="fill:#67413e"/><rect x="4.67" y="1.95" width="0.39" height="0.39" style="fill:#67413e"/><rect x="5.06" y="1.95" width="0.39" height="0.39" style="fill:#67413e"/><rect x="5.45" y="1.95" width="0.39" height="0.39" style="fill:#67413e"/><rect x="5.84" y="1.95" width="0.39" height="0.39" style="fill:#67413e"/><rect x="6.23" y="1.95" width="0.39" height="0.39" style="fill:#67413e"/><rect x="6.62" y="1.95" width="0.39" height="0.39" style="fill:#67413e"/><rect x="7.01" width="0.39" height="0.39" style="fill:#e9efff"/><rect x="7.4" width="0.39" height="0.39" style="fill:#563635"/><rect x="7.79" width="0.39" height="0.39" style="fill:#563635"/><rect x="8.18" width="0.39" height="0.39" style="fill:#563635"/><rect x="8.57" width="0.39" height="0.39" style="fill:#563635"/><rect x="8.96" width="0.39" height="0.39" style="fill:#563635"/><rect x="9.35" width="0.39" height="0.39" style="fill:#563635"/><rect x="9.74" width="0.39" height="0.39" style="fill:#563635"/><rect x="10.13" width="0.39" height="0.39" style="fill:#563635"/><rect x="10.52" width="0.39" height="0.39" style="fill:#563635"/><rect x="7.01" y="0.39" width="0.39" height="0.39" style="fill:#7a514f"/><rect x="7.4" y="0.39" width="0.39" height="0.39" style="fill:#67413e"/><rect x="7.79" y="0.39" width="0.39" height="0.39" style="fill:#67413e"/><rect x="8.18" y="0.39" width="0.39" height="0.39" style="fill:#67413e"/><rect x="8.57" y="0.39" width="0.39" height="0.39" style="fill:#67413e"/><rect x="8.96" y="0.39" width="0.39" height="0.39" style="fill:#67413e"/><rect x="9.35" y="0.39" width="0.39" height="0.39" style="fill:#67413e"/><rect x="9.74" y="0.39" width="0.39" height="0.39" style="fill:#67413e"/><rect x="10.13" y="0.39" width="0.39" height="0.39" style="fill:#67413e"/><rect x="10.52" y="0.39" width="0.39" height="0.39" style="fill:#67413e"/><rect x="7.01" y="0.78" width="0.39" height="0.39" style="fill:#7a514f"/><rect x="7.4" y="0.78" width="0.39" height="0.39" style="fill:#67413e"/><rect x="7.79" y="0.78" width="0.39" height="0.39" style="fill:#67413e"/><rect x="8.18" y="0.78" width="0.39" height="0.39" style="fill:#67413e"/><rect x="8.57" y="0.78" width="0.39" height="0.39" style="fill:#67413e"/><rect x="8.96" y="0.78" width="0.39" height="0.39" style="fill:#67413e"/><rect x="9.35" y="0.78" width="0.39" height="0.39" style="fill:#67413e"/><rect x="9.74" y="0.78" width="0.39" height="0.39" style="fill:#67413e"/><rect x="10.13" y="0.78" width="0.39" height="0.39" style="fill:#67413e"/><rect x="10.52" y="0.78" width="0.39" height="0.39" style="fill:#67413e"/><rect x="10.91" width="0.39" height="0.39" style="fill:#563635"/><rect x="10.91" y="0.39" width="0.39" height="0.39" style="fill:#563635"/><rect x="10.91" y="0.78" width="0.39" height="0.39" style="fill:#67413e"/><rect x="7.01" y="1.17" width="0.39" height="0.39" style="fill:#563635"/><rect x="7.4" y="1.17" width="0.39" height="0.39" style="fill:#563635"/><rect x="7.79" y="1.17" width="0.39" height="0.39" style="fill:#563635"/><rect x="8.18" y="1.17" width="0.39" height="0.39" style="fill:#563635"/><rect x="8.57" y="1.17" width="0.39" height="0.39" style="fill:#563635"/><rect x="8.96" y="1.17" width="0.39" height="0.39" style="fill:#563635"/><rect x="9.35" y="1.17" width="0.39" height="0.39" style="fill:#563635"/><rect x="9.74" y="1.17" width="0.39" height="0.39" style="fill:#563635"/><rect x="10.13" y="1.17" width="0.39" height="0.39" style="fill:#563635"/><rect x="10.52" y="1.17" width="0.39" height="0.39" style="fill:#563635"/><rect x="7.01" y="1.56" width="0.39" height="0.39" style="fill:#67413e"/><rect x="7.4" y="1.56" width="0.39" height="0.39" style="fill:#67413e"/><rect x="7.79" y="1.56" width="0.39" height="0.39" style="fill:#563635"/><rect x="8.18" y="1.56" width="0.39" height="0.39" style="fill:#563635"/><rect x="8.57" y="1.56" width="0.39" height="0.39" style="fill:#563635"/><rect x="8.96" y="1.56" width="0.39" height="0.39" style="fill:#563635"/><rect x="9.35" y="1.56" width="0.39" height="0.39" style="fill:#563635"/><rect x="9.74" y="1.56" width="0.39" height="0.39" style="fill:#563635"/><rect x="10.13" y="1.56" width="0.39" height="0.39" style="fill:#563635"/><rect x="10.52" y="1.56" width="0.39" height="0.39" style="fill:#563635"/><rect x="7.01" y="1.95" width="0.39" height="0.39" style="fill:#563635"/><rect x="7.4" y="1.95" width="0.39" height="0.39" style="fill:#563635"/><rect x="7.79" y="1.95" width="0.39" height="0.39" style="fill:#563635"/><rect x="8.18" y="1.95" width="0.39" height="0.39" style="fill:#563635"/><rect x="8.57" y="1.95" width="0.39" height="0.39" style="fill:#563635"/><rect x="8.96" y="1.95" width="0.39" height="0.39" style="fill:#563635"/><rect x="9.35" y="1.95" width="0.39" height="0.39" style="fill:#563635"/><rect x="9.74" y="1.95" width="0.39" height="0.39" style="fill:#563635"/><rect x="10.13" y="1.95" width="0.39" height="0.39" style="fill:#563635"/><rect x="10.52" y="1.95" width="0.39" height="0.39" style="fill:#563635"/></g></g></svg>