<svg xmlns="http://www.w3.org/2000/svg" width="111" height="34" fill="none" role="img"
    aria-label="Mono logotype">
    <path fill="#E83D44"
        d="M15.923 14.046l3.541-3.63 3.541 3.63-3.541 3.63-3.54-3.63zm11.48 0l-5.74-5.884 3.541-3.63 9.281 9.514-15.043 15.422L4.421 14.046l9.28-9.514 3.542 3.63-5.74 5.884 7.961 8.162 7.94-8.162zm-7.939-8.161L13.702 0 0 14.046 19.464 34l19.464-19.954L25.204 0l-5.74 5.885z"></path>
    <path fill="#fff"
        d="M66.222 11.003c2.177 0 3.805 1.33 3.805 4.013v8.838h-4.025v-7.508c0-1.24-.352-1.961-1.54-1.961-.99 0-1.891.744-1.891 2.638v6.831h-4.003v-7.508c0-1.24-.396-1.961-1.54-1.961-1.011 0-1.89.744-1.89 2.638v6.831h-4.004V11.296h3.41l.483 2.412c.55-1.758 2.023-2.705 3.761-2.705s3.123.924 3.607 2.66c.616-1.713 2.09-2.66 3.827-2.66zM77.724 24.147c-3.673 0-6.18-2.39-6.18-6.583 0-4.216 2.485-6.561 6.18-6.561 3.651 0 6.136 2.345 6.136 6.56 0 4.194-2.485 6.584-6.136 6.584zm0-10.19c-1.517 0-2.2 1.284-2.2 3.607 0 2.3.683 3.584 2.2 3.584 1.496 0 2.177-1.262 2.177-3.584 0-2.3-.681-3.608-2.177-3.608zM89.403 13.686c.593-1.736 2.089-2.706 3.914-2.706 2.2 0 3.827 1.398 3.827 4.059v8.793h-4.003v-7.463c0-1.24-.44-1.984-1.605-1.984-1.122 0-2.067.744-2.067 2.66v6.787h-4.003V11.296h3.409l.528 2.39zM104.842 24.147c-3.673 0-6.18-2.39-6.18-6.583 0-4.216 2.485-6.561 6.18-6.561 3.651 0 6.136 2.345 6.136 6.56.022 4.194-2.463 6.584-6.136 6.584zm0-10.19c-1.518 0-2.199 1.284-2.199 3.607 0 2.3.681 3.584 2.199 3.584 1.495 0 2.177-1.262 2.177-3.584 0-2.3-.66-3.608-2.177-3.608z"></path>
</svg>