<?xml version="1.0" encoding="UTF-8" standalone="no"?>
<svg width="100%" height="100%" viewBox="0 0 111 111" version="1.1"
    xmlns="http://www.w3.org/2000/svg" xmlns:xlink="http://www.w3.org/1999/xlink"
    xml:space="preserve" xmlns:serif="http://www.serif.com/"
    style="fill-rule:evenodd;clip-rule:evenodd;stroke-linejoin:round;stroke-miterlimit:2;"><g><g id="Layer_1-2"><path d="M34.37,55.169L41.4,47.961L48.43,55.169L41.38,62.378L34.35,55.169L34.37,55.169ZM57.168,55.169L45.769,43.473L52.799,36.264L71.248,55.169L41.46,85.792L11.671,55.169L30.1,36.264L37.13,43.473L25.592,55.169L41.48,71.374L57.248,55.169L57.168,55.169ZM41.4,39.024L29.961,27.268L2.755,55.169L41.4,94.887L80.065,55.169L52.799,27.268L41.4,39.024Z" style="fill:#e83d44;fill-rule:nonzero;"/><g id="_1_hat"><g id="fabric"><path d="M99.646,64.602C99.646,64.305 95.456,57.473 95.297,57.235L88.148,46.69C87.032,52.204 84.26,57.248 80.204,61.147L47.715,28.122C52.663,24.418 57.829,21.016 63.185,17.934C64.251,17.213 65.397,16.62 66.601,16.166C67.977,15.763 69.398,15.536 70.831,15.491C75.458,15.177 80.098,15.111 84.732,15.293C86.306,15.247 87.87,15.566 89.3,16.226C90.457,16.969 91.461,17.926 92.259,19.046C93.848,21.032 93.828,21.032 95.436,23.018C96.347,24.195 97.183,25.429 97.939,26.712C98.281,27.56 98.547,28.437 98.733,29.333C100.063,37.753 101.235,45.498 102.049,54.037C102.049,54.474 103.022,61.405 102.903,61.822" style="fill:#e83d44;fill-rule:nonzero;"/><g opacity="0.1"><path d="M78.933,55.13C78.39,55.843 77.785,56.507 77.126,57.116L80.185,61.087C84.241,57.189 87.012,52.144 88.128,46.63L95.317,57.175C95.476,57.413 99.865,64.702 99.865,64.702C99.865,64.702 96.529,57.513 96.509,57.513C92.358,50.066 90.233,48.02 88.565,43.612L89.657,37.038C89.657,37.038 89.657,36.919 89.518,37.038C87.368,42.158 84.707,47.049 81.575,51.635" style="fill-rule:nonzero;"/></g></g><g id="fur_ball"><path d="M101.334,71.096C100.384,71.477 99.345,71.587 98.336,71.414L98.792,70.52C97.782,69.887 96.528,69.769 95.416,70.203C95.115,68.901 95.034,67.559 95.178,66.231C95.33,64.9 96.146,63.733 97.343,63.133C96.685,62.917 95.966,62.982 95.357,63.312C95.721,62.202 96.558,61.307 97.641,60.869C98.708,60.392 99.93,60.392 100.997,60.869C100.819,60.255 100.522,59.681 100.123,59.181C101.077,59.437 101.934,59.969 102.585,60.71C103.215,60.398 103.882,60.171 104.571,60.035L104.055,61.782C105.877,62.087 107.438,63.269 108.225,64.94L106.895,65.039C107.979,67.48 107.195,70.371 105.028,71.93C105.013,71.425 104.905,70.927 104.71,70.461C103.636,71.101 102.521,71.671 101.374,72.169L101.374,71.017" style="fill:#fff;fill-rule:nonzero;"/><g opacity="0.1"><path d="M95.178,66.29C95.33,64.96 96.146,63.793 97.343,63.192C96.685,62.977 95.966,63.041 95.357,63.371C95.706,62.239 96.545,61.32 97.641,60.869C98.455,60.52 99.361,60.443 100.222,60.651C99.53,60.971 98.865,61.35 98.236,61.782C98.836,61.944 99.421,62.156 99.984,62.418L98.475,63.431C98.671,63.491 98.835,63.627 98.931,63.808C98.087,64.225 97.418,64.929 97.045,65.794C96.643,66.751 96.42,67.775 96.39,68.813C97.791,68.569 99.231,68.922 100.361,69.786L99.984,70.501C100.894,70.381 101.815,70.381 102.725,70.501C102.423,71.173 101.976,71.771 101.414,72.248L101.414,71.315C100.463,71.696 99.425,71.806 98.415,71.632L98.872,70.739C97.861,70.105 96.607,69.987 95.496,70.421C95.15,69.073 95.042,67.675 95.178,66.29Z" style="fill-rule:nonzero;"/></g></g><g id="fur"><path d="M50.952,23.911C50.401,24.458 50.01,25.145 49.82,25.897C52.117,25.048 54.599,24.829 57.009,25.262L56.493,27.109C66.721,27.45 75.322,35.134 76.809,45.26L78.397,43.512C78.103,45.355 78.618,47.238 79.807,48.676C80.974,50.066 81.999,51.569 82.866,53.164C83.94,56.498 83.58,60.133 81.873,63.192C81.475,62.438 81.078,61.703 80.701,60.948C80.593,61.898 80.427,62.839 80.204,63.768C79.809,64.833 79.076,65.739 78.119,66.35C77.164,66.947 76.107,67.365 75.001,67.581C75.453,67.198 75.727,66.644 75.756,66.052C75.746,65.933 75.746,65.814 75.756,65.695C73.9,65.675 72.092,65.093 70.573,64.027C68.196,62.079 66.26,59.649 64.893,56.897L61.1,50.483C61.398,51.541 61.27,52.675 60.743,53.64C59.066,50.112 57.001,46.781 54.586,43.711C52.119,40.622 48.708,38.424 44.875,37.455C44.751,38.034 44.873,38.639 45.213,39.123C42.445,38.195 40.569,35.585 40.569,32.666C40.569,31.868 40.709,31.076 40.983,30.326C41.522,29.146 42.299,28.091 43.267,27.228C45.431,25.262 47.616,24.865 50.952,23.911Z" style="fill:#fff;fill-rule:nonzero;"/><g opacity="0.1"><path d="M49.82,25.897C51.992,25.081 54.332,24.815 56.632,25.123C50.118,26.036 47.397,27.744 46.027,29.095C45.094,29.949 44.359,32.55 45.213,33.503C45.588,32.697 46.179,32.009 46.921,31.517C46.807,33.208 47.555,34.846 48.907,35.867C50.236,36.861 51.637,37.757 53.097,38.547C56.042,40.483 58.285,43.319 59.492,46.63C59.725,45.353 59.616,44.037 59.174,42.817C62.113,46.511 63.265,51.237 64.993,55.626C66.055,58.606 67.756,61.317 69.977,63.57C67.901,61.664 66.18,59.404 64.893,56.897L61.1,50.483C61.398,51.541 61.27,52.675 60.743,53.64C59.066,50.112 57.001,46.781 54.586,43.711C52.119,40.622 48.708,38.424 44.875,37.455C44.751,38.034 44.873,38.639 45.213,39.123C42.445,38.195 40.569,35.585 40.569,32.666C40.569,31.868 40.709,31.076 40.983,30.326C41.522,29.146 42.299,28.091 43.267,27.228C45.431,25.242 47.616,24.865 50.952,23.911C50.401,24.458 50.01,25.145 49.82,25.897Z" style="fill-rule:nonzero;"/></g></g></g></g></g></svg>